<svg width="268" height="114" viewBox="0 0 268 114" fill="none" xmlns="http://www.w3.org/2000/svg">
<path fill-rule="evenodd" clip-rule="evenodd" d="M113.8 108.27C113.8 109.1 114.05 109.78 114.54 110.3C115.03 110.82 115.69 111.08 116.5 111.08C117.31 111.08 117.96 110.82 118.46 110.3C118.95 109.78 119.2 109.1 119.2 108.27C119.2 107.44 118.95 106.76 118.46 106.23C117.97 105.7 117.31 105.44 116.5 105.44C115.69 105.44 115.04 105.7 114.54 106.23C114.05 106.76 113.8 107.44 113.8 108.27ZM121.65 108.22C121.65 109.74 121.16 110.95 120.18 111.86C119.2 112.77 117.97 113.22 116.5 113.22C115.03 113.22 113.82 112.77 112.86 111.87C111.86 110.94 111.36 109.72 111.36 108.22C111.36 106.72 111.87 105.58 112.89 104.63C113.88 103.72 115.08 103.27 116.49 103.27C117.9 103.27 119.14 103.74 120.14 104.67C121.14 105.6 121.64 106.79 121.64 108.22H121.65ZM129.47 105.51H127.59V112.99H125.19V105.51H123.3V103.56H129.47V105.51ZM138.67 109.97H141.2C140.27 112.16 138.7 113.25 136.51 113.25C135 113.25 133.78 112.77 132.87 111.82C131.95 110.87 131.5 109.68 131.5 108.27C131.5 107.21 131.78 106.27 132.33 105.44C132.88 104.61 133.64 104 134.59 103.62C135.19 103.38 135.82 103.27 136.48 103.27C137.96 103.27 139.17 103.78 140.12 104.8C141.02 105.8 141.47 107.03 141.47 108.5V109.04H133.92C134.17 110.49 135.04 111.21 136.54 111.21C137.13 111.21 137.57 111.14 137.86 110.99C138.21 110.81 138.49 110.47 138.68 109.96L138.67 109.97ZM136.51 105.32C135.17 105.32 134.32 105.97 133.96 107.26H139.01C138.7 105.97 137.87 105.32 136.51 105.32ZM149.97 112.98L147.84 106.57L145.72 112.98H143.36L146.72 103.55H149.01L152.4 112.98H149.97ZM161.61 110.08C161.61 111.12 161.23 111.89 160.47 112.37C159.83 112.77 158.97 112.98 157.87 112.98H154.79V103.55H157.16V107.14H157.87C160.36 107.14 161.6 108.12 161.6 110.09L161.61 110.08ZM157.17 108.97V111.16H157.79C158.7 111.16 159.16 110.8 159.16 110.08C159.16 109.36 158.67 108.97 157.7 108.97H157.17Z" fill="#BB9F68"/>
<path fill-rule="evenodd" clip-rule="evenodd" d="M53.96 91.52H49.89V67.13L51.13 66.96C54.9 66.45 58.66 65.93 62.44 65.46C64.54 65.2 66.7 65.48 68.37 66.88C70.1 68.34 70.63 70.57 70.63 72.74C70.63 74.91 70.1 77.21 68.52 78.86C66.95 80.51 64.7 81.1 62.49 81.22C59.65 81.38 56.8 81.55 53.96 81.72V91.52ZM78.85 83.9C80.77 81.17 82.68 78.43 84.55 75.67C87.36 71.52 90.12 67.34 92.88 63.16L93.28 62.55L94 62.51C94.51 62.48 95.01 62.45 95.52 62.42L97.04 62.33V91.51H92.95V70.46C91.06 73.31 89.16 76.16 87.23 78.98C84.49 82.99 81.69 86.96 78.87 90.91L78.44 91.51H74.77V64.11L76.07 63.98C76.47 63.94 76.88 63.9 77.28 63.86L78.85 63.71V83.9ZM120.82 75.67C121.69 76.25 122.36 77.03 122.85 77.95C123.62 79.39 123.9 81.01 123.9 82.63C123.9 83.67 123.78 84.72 123.48 85.72C123.21 86.62 122.82 87.49 122.28 88.27C120.63 90.65 118.04 91.52 115.23 91.52H102.3V62.02L103.68 61.96C107.58 61.8 111.49 61.63 115.39 61.51C117.47 61.45 119.49 62.01 121.02 63.47C122.66 65.04 123.16 67.27 123.16 69.46C123.16 71.21 122.87 73.08 121.85 74.54C121.55 74.97 121.2 75.35 120.81 75.68L120.82 75.67ZM157.1 65.94V73.97C161.72 74.08 166.35 74.19 170.97 74.33L172.36 74.37V78.56L170.89 78.52C166.3 78.4 161.7 78.29 157.1 78.2V87.29C161.98 87.3 166.86 87.31 171.74 87.33H173.17V91.52H153.01V61.56L154.5 61.62C160.22 61.83 165.94 62.09 171.65 62.41L173 62.49V66.69L171.49 66.61C166.69 66.35 161.9 66.14 157.1 65.96V65.94ZM182.7 80.14V91.52H178.63V62.71L180.17 62.83C183.94 63.11 187.72 63.38 191.49 63.7C193.68 63.88 195.7 64.67 197.23 66.29C198.82 67.97 199.37 70.2 199.37 72.46C199.37 74.72 198.86 76.94 197.22 78.53C195.59 80.12 193.29 80.53 191.1 80.45C188.3 80.35 185.5 80.26 182.7 80.16V80.14ZM215.41 84.26C215.83 85.21 216.25 86.15 216.68 87.1C217.22 88.3 217.77 89.49 218.31 90.69L218.69 91.53H223.1L222.18 89.5C220.5 85.81 218.83 82.11 217.22 78.38C215.54 74.49 213.9 70.58 212.28 66.66L211.96 65.88L211.13 65.78C210.61 65.72 210.1 65.66 209.58 65.61L208.55 65.5L208.13 66.45C206.45 70.21 204.75 73.96 203.14 77.74C201.46 81.66 199.81 85.6 198.18 89.54L197.36 91.52H201.81L202.17 90.63C202.69 89.34 203.22 88.06 203.75 86.77C204.15 85.8 204.56 84.84 204.97 83.88C208.46 84 211.95 84.12 215.43 84.26H215.41ZM132.75 73.42C135.57 73.42 138.39 73.42 141.21 73.45C143.52 73.47 145.78 74.09 147.35 75.89C148.94 77.72 149.42 80.21 149.42 82.57C149.42 84.93 148.94 87.39 147.29 89.17C145.74 90.85 143.65 91.52 141.4 91.52H128.67V61.29H130.1C130.5 61.28 130.91 61.28 131.31 61.28H132.75V73.43V73.42ZM53.96 77.8C56.74 77.62 59.51 77.42 62.29 77.26C65.18 77.09 66.55 75.88 66.54 72.92C66.54 71.98 66.38 70.7 65.59 70.07C64.74 69.39 63.23 69.43 62.21 69.55C59.46 69.88 56.71 70.24 53.96 70.59V77.81V77.8ZM106.4 78.26V87.29C109.24 87.29 112.09 87.28 114.93 87.27C118.21 87.27 119.8 85.97 119.82 82.62C119.82 81.73 119.71 80.76 119.31 79.95C119.04 79.4 118.66 78.91 118.13 78.62C117.18 78.14 115.63 78.08 114.58 78.1C111.85 78.14 109.12 78.2 106.4 78.26ZM106.4 66.06V74.11C109.11 74.05 111.83 73.98 114.54 73.94C117.59 73.89 119.1 72.72 119.1 69.58C119.1 68.57 118.95 67.28 118.2 66.5L118.16 66.45C117.91 66.16 117.53 66.02 117.17 65.94C116.36 65.76 115.48 65.72 114.65 65.75C111.9 65.84 109.15 65.95 106.41 66.06H106.4ZM182.7 76.04C185.53 76.14 188.35 76.24 191.18 76.36C194.07 76.48 195.3 75.33 195.28 72.43C195.28 71.26 195.06 69.94 194.2 69.07C193.3 68.16 191.9 67.84 190.67 67.75C188.02 67.54 185.36 67.36 182.7 67.18V76.05V76.04ZM206.62 79.94C207.29 78.39 207.96 76.84 208.64 75.29C209.14 74.16 209.63 73.03 210.14 71.9C210.67 73.16 211.2 74.43 211.74 75.69C212.38 77.21 213.04 78.72 213.7 80.23C211.34 80.13 208.98 80.03 206.62 79.94ZM132.75 87.25C135.44 87.25 138.13 87.25 140.83 87.25C141.99 87.25 143.39 87.06 144.24 86.18C145.13 85.25 145.33 83.68 145.33 82.45C145.35 79.44 144.4 77.61 141.16 77.59C138.36 77.57 135.56 77.56 132.75 77.56V87.25Z" fill="#BB9F68"/>
<path fill-rule="evenodd" clip-rule="evenodd" d="M268 74.11C203.3 42.96 64.7 42.96 0 74.11C70.53 48.97 197.47 48.97 268 74.11Z" fill="#BB9F68"/>
<path fill-rule="evenodd" clip-rule="evenodd" d="M141.53 2.43H127.2V6.94H132.09V20.25H131.61V45.8H130.38V20.25H127.2V46.64H141.53V2.43Z" fill="#BB9F68"/>
<path d="M143.94 1.28H142.82V46.55H143.94V1.28Z" fill="#BB9F68"/>
<path d="M141.53 0.04H129.59V1.85H141.53V0.04Z" fill="#BB9F68"/>
<path fill-rule="evenodd" clip-rule="evenodd" d="M127.55 0V6.57H132.45V20.62H127.55V47.83H118.64V0H127.55ZM119.71 1.1V2.99H121.56V3.85H119.71V5.28H121.56V6.14H119.71V7.57H121.56V8.43H119.71V9.86H121.56V10.72H119.71V12.15H121.56V13.01H119.71V14.44H121.56V15.3H119.71V16.73H121.56V17.59H119.71V19.02H121.56V19.88H119.71V21.31H121.56V22.17H119.71V23.6H121.56V24.46H119.71V25.89H121.56V26.75H119.71V28.18H121.56V29.04H119.71V30.47H121.56V31.33H119.71V32.76H121.56V33.62H119.71V35.05H121.56V35.91H119.71V37.34H121.56V38.2H119.71V39.63H121.56V40.49H119.71V41.92H121.56V42.78H119.71V44.21H121.56V45.07H119.71V46.67H126.48V19.52H131.38V7.67H126.48V1.1H119.71Z" fill="#BB9F68"/>
<path fill-rule="evenodd" clip-rule="evenodd" d="M96.11 52.5L113.13 51.68V46.48L125.62 46.15L125.71 45.86L151.22 45.96V50.76L151.55 50.49V52.76C137.97 52.76 120.42 53.24 107.99 53.34L96.1 54.59V52.51L96.11 52.5Z" fill="#BB9F68"/>
<path fill-rule="evenodd" clip-rule="evenodd" d="M91.39 42.05C94.27 41.92 96.76 43.8 97.15 46.39C96.99 45.96 96.51 45.67 95.97 45.72C95.43 45.77 95.01 46.13 94.92 46.58H94.89C94.73 46.15 94.25 45.86 93.71 45.91C93.17 45.96 92.75 46.32 92.66 46.77H92.63C92.49 46.41 92.14 46.16 91.72 46.1L92.13 51.14L91.74 51.45L91.3 46.11C90.84 46.2 90.48 46.54 90.4 46.95H90.37C90.21 46.52 89.73 46.23 89.19 46.28C88.65 46.33 88.23 46.69 88.14 47.14H88.11C87.95 46.71 87.47 46.42 86.93 46.47C86.46 46.51 86.07 46.8 85.92 47.18C85.97 44.6 88.12 42.38 90.97 42.07L90.91 41.34L91.32 41.31L91.38 42.04L91.39 42.05ZM85.77 50.3L87.31 51.04H87.3L86.3 52.97L85.37 53.05L85.41 53.53L97.34 52.52L97.3 52.04L96.43 52.11L96.71 51.68L93.94 50.73L93.37 50.78L91.23 52.11L86.09 49.67L85.77 50.29V50.3ZM87.67 51.21L86.78 52.93L90.59 52.61L87.67 51.21ZM92.15 52.48L96.02 52.15L93.71 51.41L92.15 52.48Z" fill="#BB9F68"/>
<path fill-rule="evenodd" clip-rule="evenodd" d="M105.52 40.93C108.4 40.85 110.86 42.78 111.21 45.38C111.05 44.95 110.58 44.65 110.04 44.68C109.5 44.72 109.07 45.07 108.97 45.52H108.94C108.78 45.09 108.31 44.79 107.77 44.83C107.23 44.86 106.8 45.22 106.7 45.67H106.67C106.54 45.31 106.19 45.05 105.77 44.99L106.09 50.04L105.69 50.35L105.35 45C104.88 45.09 104.52 45.42 104.43 45.83H104.4C104.24 45.4 103.77 45.1 103.23 45.14C102.69 45.17 102.26 45.53 102.16 45.98H102.13C101.97 45.55 101.5 45.25 100.96 45.28C100.48 45.31 100.09 45.6 99.94 45.98C100.03 43.4 102.23 41.23 105.08 40.96L105.03 40.23L105.44 40.2L105.49 40.93H105.52ZM99.75 49.07L101.28 49.84H101.27L100.24 51.76L99.31 51.82L99.34 52.3L111.28 51.52L111.25 51.04L110.38 51.1L110.67 50.68L107.91 49.68L107.34 49.72L105.18 51.01L100.09 48.48L99.76 49.09L99.75 49.07ZM101.63 50.02L100.71 51.72L104.52 51.47L101.63 50.01V50.02ZM106.09 51.37L109.97 51.12L107.67 50.34L106.1 51.38L106.09 51.37Z" fill="#BB9F68"/>
<path fill-rule="evenodd" clip-rule="evenodd" d="M165.23 33.79C165.88 33.9 166.32 34.53 166.22 35.19C166.11 35.85 165.5 36.3 164.85 36.19C162.64 35.81 160.19 35.43 158.01 36.15C157.34 36.37 156.81 36.74 156.43 37.22C155.76 38.07 155.49 39.3 155.63 40.73C155.78 42.29 156.39 44.05 157.46 45.81C157.73 46.25 158.02 46.68 158.34 47.11C157.58 47.22 156.67 47.43 155.85 47.77C155.7 47.55 155.56 47.32 155.42 47.1C154.15 45.02 153.42 42.89 153.24 40.96C153.05 38.9 153.48 37.05 154.57 35.69C155.24 34.85 156.13 34.22 157.26 33.84C159.89 32.97 162.56 33.33 165.23 33.79Z" fill="#BB9F68"/>
<path fill-rule="evenodd" clip-rule="evenodd" d="M157.5 44.14C157.64 44.72 158.17 45.15 158.78 45.11L168.03 44.52C168.64 44.48 169.12 44 169.18 43.4L157.5 44.14Z" fill="#BB9F68"/>
<path fill-rule="evenodd" clip-rule="evenodd" d="M167.87 42.01L158.62 42.6C157.94 42.64 157.42 43.24 157.46 43.93C157.46 43.93 157.46 43.97 157.46 43.99L169.17 43.25C169.17 43.25 169.17 43.21 169.17 43.19C169.13 42.5 168.54 41.97 167.86 42.01H167.87Z" fill="#BB9F68"/>
<path fill-rule="evenodd" clip-rule="evenodd" d="M165.33 46.32L163.13 45.35L158.56 45.57L160.68 46.65L165.33 46.32Z" fill="#BB9F68"/>
<path fill-rule="evenodd" clip-rule="evenodd" d="M165.91 41.5L163.7 40.53L159.13 40.74L161.26 41.82L165.91 41.5Z" fill="#BB9F68"/>
<path fill-rule="evenodd" clip-rule="evenodd" d="M156.95 39.4C157.09 39.98 157.62 40.41 158.23 40.37L167.48 39.79C168.09 39.75 168.57 39.27 168.63 38.67L156.95 39.41V39.4Z" fill="#BB9F68"/>
<path fill-rule="evenodd" clip-rule="evenodd" d="M167.32 37.27L158.07 37.86C157.39 37.9 156.87 38.5 156.91 39.19C156.91 39.19 156.91 39.23 156.91 39.25L168.62 38.51C168.62 38.51 168.62 38.47 168.62 38.45C168.58 37.76 167.99 37.23 167.31 37.27H167.32Z" fill="#BB9F68"/>
<path fill-rule="evenodd" clip-rule="evenodd" d="M211.68 36.49C213.77 36.49 215.46 38.12 215.46 40.13C215.46 42.14 213.77 43.77 211.68 43.77C209.59 43.77 207.9 42.14 207.9 40.13C207.9 38.12 209.59 36.49 211.68 36.49Z" fill="#BB9F68"/>
<path fill-rule="evenodd" clip-rule="evenodd" d="M168.63 33.1L159.01 31.68L158.83 32.97C160.98 32.64 163.14 32.94 165.32 33.32C166.23 33.48 166.85 34.35 166.7 35.28C166.55 36.21 165.69 36.84 164.77 36.69C162.7 36.34 160.37 35.96 158.32 36.58L158.24 37.14L168.11 36.83L168.64 33.11L168.63 33.1Z" fill="#BB9F68"/>
<path fill-rule="evenodd" clip-rule="evenodd" d="M151.56 51.44L155.04 48.66C157.1 47.01 163.07 47.25 165.92 47.07C166.6 47.03 167.19 47.56 167.23 48.25C167.23 48.32 167.23 48.38 167.23 48.45H167.21C165.31 48.45 163.36 48.35 161.47 48.47C159.99 48.56 158.43 48.8 157.13 49.59C157.04 49.65 156.94 49.71 156.85 49.77L156.99 49.85C159.35 48.27 162.78 48.58 167.21 48.59C167.09 49.12 166.64 49.54 166.08 49.58C163.11 49.77 160.3 49.23 158.1 49.86L160.92 49.89L169.01 50.27V50.24L169.08 49.8L169.17 49.14L169.56 47.46L170.33 42.1L172.39 42.4L172.51 41.46L172.64 40.42L190.5 42.86L190.65 41.78L195.04 42.43L194.89 43.46L208.21 45.28L208.33 44.44L212.73 45.03L211.86 51.03H211.96L216.12 51.92L214.79 59.89L204.31 58.8L204.39 58.26L203.69 58.19L203.62 58.7L181.8 55.48C172.52 54.11 162.15 53.71 151.58 53.7V51.43L151.56 51.44ZM173.25 42.54L174.73 42.76L174.31 45.87L189.73 47.99L190.31 43.91L189.62 43.82L188.71 43.7L188.21 43.62L187.99 45.44L187.51 45.37L187.73 43.56L186.69 43.42L186.33 43.37L186.11 45.18L185.67 45.12L185.89 43.31L184.74 43.15L184.47 43.12L184.26 44.93L183.83 44.87L184.05 43.06L183.11 42.93L182.61 42.86L182.39 44.67L181.98 44.61L182.2 42.8L181.05 42.64L180.83 42.61L180.61 44.42L180.14 44.36L180.36 42.55L179.21 42.39L178.97 42.36L178.75 44.17L178.3 44.11L178.52 42.3L177.37 42.14L177.16 42.11L176.94 43.92L176.45 43.85L176.67 42.04C174.29 41.71 176.13 41.97 173.32 41.58L173.2 42.53L173.25 42.54ZM194.72 44.51L194.13 48.6L207.44 50.43L208.03 46.33L206.82 46.16L206.59 46.13L206.37 47.94L205.91 47.88L206.13 46.07L205.25 45.95L204.75 45.88L204.53 47.69L204.06 47.63L204.28 45.82L203.37 45.7L202.87 45.63L202.65 47.44L202.21 47.38L202.43 45.57L201.32 45.42L201.04 45.38L200.82 47.19L200.36 47.13L200.58 45.32L199.7 45.2L199.2 45.13L198.98 46.94L198.51 46.88L198.73 45.07L197.84 44.95L197.34 44.87L197.12 46.69L196.66 46.63L196.88 44.82L194.65 44.52L194.72 44.51ZM207.31 51.41L201.85 50.67L201.62 52.18V52.23L207.11 52.98L207.29 51.73H207.27L207.32 51.41H207.31ZM194.01 49.58L193.77 51.15L199.54 51.94V51.9L199.78 50.37L194.01 49.58Z" fill="#BB9F68"/>
<path fill-rule="evenodd" clip-rule="evenodd" d="M173.5 49.39L173.54 49.04L177.15 49.53L177.11 49.88L173.5 49.39ZM187.79 51.34L187.83 50.99L208.99 53.88L208.95 54.23L187.79 51.34Z" fill="#BB9F68"/>
<path fill-rule="evenodd" clip-rule="evenodd" d="M170.78 39.12L175.18 39.7L174.13 46.99L169.73 46.4L170.78 39.12Z" fill="#BB9F68"/>
<path fill-rule="evenodd" clip-rule="evenodd" d="M55.91 54.81L61.62 54.07L62.55 54.17C62.7 54.19 62.98 54.23 63.12 54.21C68.8 53.16 75.93 52.25 82.29 51.7V54.37L83.21 54.27L83.18 55.38L56.49 57.43L55.92 54.8L55.91 54.81Z" fill="#BB9F68"/>
<path fill-rule="evenodd" clip-rule="evenodd" d="M66.9 40.91L68.52 40.71C68.27 41.43 68.4 42.13 68.78 42.81L67.16 43.01C67.34 42.19 67.24 41.5 66.9 40.91Z" fill="#BB9F68"/>
<path fill-rule="evenodd" clip-rule="evenodd" d="M80.96 50.3L81.17 52.02L71.44 53.25L71.39 52.84L80.57 51.68L80.41 50.37L79.47 50.49L79.56 51.2L79.13 51.26L79.04 50.54L78.33 50.63L78.41 51.35L77.99 51.4L77.9 50.69L77.18 50.78L77.27 51.49L76.84 51.55L76.75 50.83L76.04 50.92L76.13 51.64L75.7 51.69L75.61 50.97L74.89 51.06L74.98 51.78L74.55 51.84L74.47 51.12L73.75 51.21L73.84 51.93L73.41 51.98L73.32 51.26L72.61 51.35L72.69 52.07L72.27 52.13L72.18 51.41L71.46 51.5L71.55 52.22L71.12 52.27L71.03 51.55L70.32 51.64L70.41 52.36L69.98 52.42L69.89 51.7L69.17 51.79L69.26 52.51L68.83 52.56L68.75 51.84L68.03 51.93L68.12 52.65L67.69 52.7L67.6 51.99L66.89 52.08L66.97 52.79L66.54 52.85L66.46 52.13L65.74 52.22L65.83 52.94L65.4 52.99L65.31 52.28L64.6 52.37L64.69 53.08L64.26 53.14L64.17 52.42L63.45 52.51L63.54 53.23L63.11 53.28L63.03 52.56L62.31 52.66L62.4 53.37L61.97 53.43L61.88 52.71L61.17 52.8L61.25 53.52L60.82 53.57L60.74 52.85L60.02 52.94L60.11 53.66L59.68 53.72L59.59 53L58.88 53.09L58.97 53.81L58.54 53.86L58.45 53.14L57.65 53.24L57.81 54.55L71.39 52.84L71.44 53.25L57.31 55.04L57.05 52.9L80.91 49.88L80.96 50.3Z" fill="#BB9F68"/>
<path fill-rule="evenodd" clip-rule="evenodd" d="M67.16 43.06L68.78 42.86C68.53 43.58 68.66 44.28 69.04 44.96L67.42 45.16C67.6 44.34 67.5 43.64 67.16 43.06Z" fill="#BB9F68"/>
<path fill-rule="evenodd" clip-rule="evenodd" d="M67.42 45.22L69.04 45.02C68.79 45.74 68.92 46.44 69.3 47.12L67.68 47.32C67.86 46.5 67.76 45.81 67.42 45.22Z" fill="#BB9F68"/>
<path fill-rule="evenodd" clip-rule="evenodd" d="M67.69 47.38L69.31 47.18C69.06 47.9 69.19 48.6 69.57 49.28L67.95 49.48C68.13 48.66 68.03 47.97 67.69 47.38Z" fill="#BB9F68"/>
<path fill-rule="evenodd" clip-rule="evenodd" d="M67.95 49.54L69.57 49.34C69.32 50.06 69.45 50.76 69.83 51.44L68.21 51.64C68.39 50.82 68.29 50.12 67.95 49.54Z" fill="#BB9F68"/>
<path fill-rule="evenodd" clip-rule="evenodd" d="M67.15 36.86C67.54 38.29 68.4 39.53 69.7 40.58L65.73 41.06C66.5 40.05 67.01 38.68 67.15 36.85V36.86Z" fill="#BB9F68"/>
<path fill-rule="evenodd" clip-rule="evenodd" d="M66.68 40.93C64.4 45.65 61.54 49.47 57.9 52.79L58.15 52.76C58.15 52.76 58.25 52.77 58.28 52.74C64.62 46.84 64.85 44.83 67.19 40.87L66.68 40.93Z" fill="#BB9F68"/>
<path fill-rule="evenodd" clip-rule="evenodd" d="M68.8 40.67C72.15 44.7 75.85 47.72 80.17 50.07L79.92 50.1C79.92 50.1 79.83 50.14 79.79 50.11C72.22 45.91 71.51 44.01 68.29 40.73L68.8 40.67Z" fill="#BB9F68"/>
<path fill-rule="evenodd" clip-rule="evenodd" d="M68.43 40.72C69.98 44.97 72.27 48.16 75.43 50.66L75.18 50.69C75.18 50.69 75.08 50.73 75.05 50.7C69.56 46.24 69.66 44.25 67.92 40.78L68.43 40.72Z" fill="#BB9F68"/>
<path fill-rule="evenodd" clip-rule="evenodd" d="M67.1 40.88C66.62 45.38 65.16 49.03 62.7 52.21L62.95 52.18C62.95 52.18 63.06 52.19 63.08 52.16C67.34 46.51 66.76 44.6 67.62 40.82L67.11 40.88H67.1Z" fill="#BB9F68"/>
</svg>
